<svg width="435" height="81" viewBox="0 0 435 81" fill="none" xmlns="http://www.w3.org/2000/svg">
<path fill-rule="evenodd" clip-rule="evenodd" d="M37.3 0C41 0 44.4 0.4 47.6 1C50.6667 1.66667 53.3 2.76667 55.5 4.3C57.7 5.83334 59.4333 7.83334 60.7 10.3C61.9 12.8 62.5 15.9 62.5 19.6C62.5 23.6 61.6 26.9333 59.8 29.6C58 32.2 55.3 34.3667 51.7 36.1C56.5667 37.5 60.2 39.9333 62.6 43.4C65 46.9333 66.2 51.1667 66.2 56.1C66.2 60.1 65.4334 63.5667 63.9 66.5C62.3 69.4 60.2 71.8 57.6 73.6C55 75.4667 52 76.8333 48.6 77.7C45.2667 78.5667 41.8334 79 38.3 79H0V0H37.3ZM35.1 32C38.1667 32 40.7 31.2333 42.7 29.7C44.7 28.3 45.7 25.9 45.7 22.6C45.7 20.7333 45.3667 19.2 44.7 18C44.0333 16.8 43.1333 15.9 42 15.3C40.9333 14.6333 39.6667 14.1667 38.2 13.9C36.8 13.6 35.3 13.5 33.7 13.5H17.5V32H35.1ZM36 65.6C37.7333 65.6 39.3667 65.4333 40.9 65.1C42.4 64.8 43.8 64.2 45 63.4C46.2 62.7 47.1 61.6 47.8 60.3C48.5334 58.9667 48.9 57.2333 48.9 55.1C48.9 51.1 47.7334 48.2 45.4 46.4C43.1334 44.6667 40.1334 43.8 36.4 43.8H17.5V65.6H36Z" fill="#505050"/>
<path fill-rule="evenodd" clip-rule="evenodd" d="M91.0003 65.3C93.3336 67.6333 96.7003 68.8 101.1 68.8C104.3 68.8 107.034 68 109.3 66.4C111.567 64.8 112.967 63.1 113.5 61.3H127.4C125.1 68.2 121.8 73.0999 117.2 76.0999C112.6 78.9999 107.1 80.4999 100.6 80.4999C96.0669 80.4999 92.0003 79.8 88.4003 78.4C84.8003 76.9 81.7003 74.9 79.2003 72.2C76.667 69.5333 74.7003 66.3666 73.3003 62.7C71.967 58.9666 71.3003 54.8999 71.3003 50.4999C71.3003 46.2333 72.0003 42.2333 73.4003 38.4999C74.8003 34.7999 76.8003 31.6 79.4003 28.9C82.0003 26.2333 85.1003 24.1333 88.7003 22.5999C92.2336 20.9999 96.2003 20.2 100.6 20.2C105.467 20.2 109.7 21.1666 113.3 23.0999C116.9 24.9666 119.867 27.4666 122.2 30.5999C124.534 33.7999 126.234 37.4333 127.3 41.4999C128.3 45.5666 128.634 49.8 128.3 54.2H87.1003C87.1003 58.7 88.6003 63 91.0003 65.3V65.3ZM109 35.3C107.1 33.2 104 32.0999 100.1 32.0999C97.6336 32.0999 95.567 32.5333 93.9003 33.4C92.2336 34.2666 90.9003 35.2999 89.9003 36.4999C88.9003 37.7666 88.2003 39.1333 87.8003 40.5999C87.4003 41.9333 87.1669 43.1666 87.1003 44.3H112.6C112.3 40.3 110.9 37.4 109 35.3V35.3Z" fill="#505050"/>
<path d="M150.7 0V29.8H151C153 26.5333 155.534 24.1333 158.6 22.6C161.734 21.1333 164.767 20.4 167.7 20.4C171.9 20.4 175.334 20.9667 178 22.1C180.7 23.2 182.8 24.8 184.4 26.8C185.934 28.8667 187 31.3333 187.6 34.2C188.267 37.1333 188.6 40.3667 188.6 43.9V79H172.8V46.7C172.8 42.0333 172.067 38.5333 170.6 36.2C169.134 33.8667 166.534 32.7 162.8 32.7C158.534 32.7 155.434 33.9667 153.5 36.5C151.6 39.1 150.7 43.3 150.7 49.1V79H134.9V0H150.7Z" fill="#505050"/>
<path fill-rule="evenodd" clip-rule="evenodd" d="M199.8 30.2C201.4 27.8 203.467 25.8333 206 24.3C208.467 22.8333 211.267 21.8 214.4 21.2C217.534 20.5333 220.7 20.2 223.9 20.2C226.767 20.2 229.667 20.4 232.6 20.8C235.534 21.2 238.234 22 240.7 23.2C243.1 24.4 245.067 26.0666 246.6 28.2C248.2 30.2666 249 33.0333 249 36.4999V66.3C249 68.9 249.134 71.4 249.4 73.8C249.7 76.1 250.5 77.8999 251.3 79.0999L235.2 78.9999C234.8 78.3999 234.4 77.3 234.2 76.4C234 75.4666 233.867 74.4999 233.8 73.4999C231.334 76.0999 228.4 77.9333 225 78.9999C221.6 79.9999 218.134 80.4999 214.6 80.4999C211.867 80.4999 209.334 80.1666 207 79.4999C204.667 78.8333 202.6 77.8 200.8 76.4C199 75 197.634 73.2333 196.7 71.0999C195.7 68.9666 195.2 66.4 195.2 63.4C195.2 60.2 195.767 57.5333 196.9 55.4C198.034 53.2666 199.5 51.6 201.3 50.4C203.1 49.1333 205.167 48.1666 207.5 47.4999C209.8 46.8999 212.2 46.3999 214.5 45.9999C216.834 45.6666 219.167 45.4 221.5 45.2C223.8 44.9 225.8 44.6 227.6 44.2C229.334 43.7333 230.734 43.0666 231.8 42.2C232.8 41.3333 233.267 40.0999 233.2 38.4999C233.2 36.8333 232.934 35.4666 232.4 34.4C231.8 33.4666 231.067 32.6999 230.2 32.0999C229.267 31.5666 228.2 31.1999 227 30.9999C225.8 30.7999 224.5 30.7 223.1 30.7C220 30.7 217.6 31.4 215.9 32.7C214.1 34.1 213.067 36.3333 212.8 39.4H197C197.2 35.7333 198.134 32.6666 199.8 30.2ZM230.7 52.4999C229.7 52.7999 228.7 53.1 227.5 53.3C226.367 53.5 225.167 53.7 223.9 53.9C222.7 54 221.4 54.2 220.2 54.4C219 54.6 217.8 54.9 216.7 55.3C215.567 55.7 214.6 56.2 213.8 56.8C212.934 57.4 212.234 58.2 211.7 59.2C211.2 60.1 210.9 61.4 210.9 62.8C210.967 64.2 211.234 65.4 211.7 66.4C212.234 67.3333 212.934 68.0666 213.8 68.5999C214.667 69.1999 215.7 69.6 216.9 69.8C218.1 70 219.3 70.0999 220.5 70.0999C223.634 70.0999 226.034 69.5999 227.7 68.5999C229.4 67.4999 230.7 66.3 231.5 64.9C232.3 63.4333 232.767 61.9666 232.9 60.4999C233.1 59.0333 233.2 57.8666 233.2 56.9999V51.0999C232.5 51.6999 231.7 52.0999 230.7 52.4999Z" fill="#505050"/>
<path d="M272.6 21.8999V29.7999H272.9C274.9 26.5332 277.467 24.1332 280.6 22.5999C283.8 21.0999 287.1 20.3999 290.4 20.3999C294.6 20.3999 298.034 20.9666 300.7 22.0999C303.5 23.1999 305.6 24.7999 307.1 26.7999C308.7 28.8666 309.8 31.3332 310.4 34.1999C311 37.1332 311.3 40.3666 311.3 43.8999V78.9999H295.5V46.6999C295.5 42.0332 294.767 38.5332 293.3 36.1999C291.8 33.8999 289.3 32.3999 285.5 32.3999C281.2 32.3999 278.1 33.9999 276.2 36.4999C274.267 39.0332 273.3 43.2332 273.3 49.0999V78.9999H257.7V21.8999H272.6Z" fill="#505050"/>
<path d="M346.3 32.0999C343.767 32.0999 341.667 32.6666 340 33.8C338.267 34.9333 336.867 36.4 335.8 38.2C334.733 40 334 42 333.6 44.2C333.133 46.4 332.9 48.5666 332.9 50.7C332.9 52.7666 333.133 54.8666 333.6 56.9999C334 59.1333 334.7 61.1 335.7 62.9C336.7 64.5666 338.067 65.9666 339.8 67.0999C341.467 68.2333 343.533 68.8 346 68.8C349.733 68.8 352.633 67.7333 354.7 65.5999C356.7 63.5333 357.967 60.7333 358.5 57.2H373.7C372.633 64.8 369.667 70.5666 364.8 74.4999C359.933 78.4999 353.7 80.4999 346.1 80.4999C341.8 80.4999 337.9 79.8 334.3 78.4C330.7 76.9333 327.633 74.9 325.1 72.3C322.633 69.7 320.667 66.6333 319.2 63.0999C317.8 59.4999 317.1 55.5666 317.1 51.3C317.1 46.8333 317.767 42.7 319.1 38.9C320.367 35.1 322.267 31.7999 324.8 28.9999C327.333 26.2666 330.4 24.1333 334 22.5999C337.6 20.9999 341.733 20.2 346.4 20.2C349.8 20.2 353.1 20.6999 356.2 21.4999C359.333 22.4333 362.133 23.7999 364.6 25.5999C367.067 27.3999 369.1 29.6333 370.7 32.3C372.2 35 373.1 38.2 373.3 41.9H357.9C356.9 35.3666 353.033 32.0999 346.3 32.0999V32.0999Z" fill="#505050"/>
<path d="M115.9 5.2998V13.0998H83.9004V5.2998H115.9Z" fill="#505050"/>
<path fill-rule="evenodd" clip-rule="evenodd" d="M397.3 65.3C399.6 67.6 403.2 68.8 407.6 68.8C410.8 68.8 413.534 68 415.8 66.4C418.134 64.8 419.534 63.1 420 61.3H433.9C431.634 68.1666 428.234 73.0999 423.7 76.0999C419.1 79.0333 413.567 80.4999 407.1 80.4999C402.567 80.4999 398.5 79.8 394.9 78.4C391.3 76.9 388.2 74.9 385.7 72.2C383.1 69.5 381.2 66.4 379.8 62.7C378.467 58.9666 377.8 54.8999 377.8 50.4999C377.8 46.2333 378.5 42.2333 379.9 38.4999C381.3 34.8333 383.3 31.6333 385.9 28.9C388.5 26.2 391.6 24.0999 395.2 22.5999C398.734 20.9999 402.7 20.2 407.1 20.2C411.9 20.2 416.2 21.1999 419.8 23.0999C423.4 24.9666 426.367 27.4666 428.7 30.5999C431.034 33.7999 432.7 37.4333 433.7 41.4999C434.8 45.4999 435.2 49.8 434.9 54.2H393.4C393.4 58.7 394.9 63 397.3 65.3V65.3ZM415.5 35.3C413.6 33.2 410.4 32.0999 406.6 32.0999C404.134 32.0999 402.034 32.5333 400.3 33.4C398.7 34.2 397.2 35.2999 396.2 36.4999C395.2 37.7666 394.5 39.1333 394.1 40.5999C393.7 41.8999 393.5 43.2 393.4 44.3H419.2C418.7 40.3 417.4 37.4 415.5 35.3V35.3Z" fill="#505050"/>
</svg>
