<!-- ЭТО ПРОСТО СПРАЙТ ИЗ ИKOHOK utmarckus-sprite.svg -->
<svg display="none" xmlns="http://www.w3.org/2000/svg">
    <symbol id="github-logo" viewBox="0 0 134 36">
            <path fill-rule="evenodd" clip-rule="evenodd" d="M26.1626 15.9309V32.9878C26.1626 33.0863 26.1465 33.2995 25.9925 33.3845C23.5175 35.1278 20.2404 36 16.1613 36C8.77054 36 0 33.7245 0 18.4503C0 3.17607 7.66052 0 15.1288 0C21.6116 0 24.1778 1.43527 24.5979 1.73587C24.7519 1.84675 24.7975 2.00938 24.7975 2.14366L23.5495 7.42767C23.5495 7.71596 23.2489 8.03997 22.9237 7.94141C22.8189 7.90902 22.708 7.8731 22.5896 7.83469C21.5364 7.49334 19.878 6.95582 16.4816 6.95582C12.1166 6.95582 7.46833 8.24818 7.46833 18.0671C7.46833 27.8849 11.9331 29.0528 15.1288 29.0528C16.9349 29.0528 18.1645 28.9419 18.8174 28.7189V21.9233H14.4537C14.1654 21.9233 13.9313 21.688 13.9313 21.3997V15.9309C13.9313 15.6426 14.1654 15.4073 14.4537 15.4073H25.6402C25.9285 15.4073 26.1626 15.6414 26.1626 15.9309ZM83.2912 34.7878C83.2912 35.0785 83.0596 35.315 82.7713 35.315H76.4574C76.1691 35.315 75.9362 35.0785 75.9362 34.7878C75.9362 34.7865 75.9424 30.0877 75.9535 20.6901H66.1357V34.7878C66.1357 35.0785 65.9041 35.315 65.6158 35.315H59.3179C59.0308 35.315 58.798 35.0785 58.798 34.7878V1.8283C58.798 1.53755 59.0321 1.30225 59.3179 1.30225H65.6158C65.9041 1.30225 66.1357 1.53755 66.1357 1.8283V14.0004H75.9535C75.9522 5.88648 75.9522 1.8283 75.9522 1.8283C75.9522 1.53755 76.1863 1.30225 76.4734 1.30225H82.7725C83.0608 1.30225 83.2912 1.53755 83.2912 1.8283V34.7878ZM29.4039 6.15254C29.4039 8.41817 31.2236 10.2563 33.4646 10.2563C35.708 10.2563 37.5265 8.41817 37.5265 6.15254C37.5265 3.88444 35.708 2.05124 33.4646 2.05124C31.2236 2.05124 29.4039 3.88444 29.4039 6.15254ZM37.0768 34.4686C37.0768 35.0045 36.9252 35.31 36.3043 35.31H30.647C30.1308 35.31 29.7316 35.1191 29.7316 34.4784V12.6808C29.7316 12.3925 29.9891 12.0944 30.2774 12.0944H36.5569C36.8452 12.0944 37.078 12.3309 37.078 12.6192V27.8331V34.4673L37.0768 34.4686ZM107.754 34.7976L107.751 12.6723V12.671C107.751 12.3803 107.518 12.1437 107.23 12.1437H100.979C100.692 12.1437 100.459 12.3803 100.459 12.671V28.8323C99.4007 29.6072 98.1207 29.994 96.6177 29.994C94.3644 29.994 93.7656 28.9715 93.7656 26.765V12.671C93.7656 12.3803 93.5328 12.1437 93.2457 12.1437H86.9022C86.6151 12.1437 86.3811 12.3803 86.3811 12.671V27.8319C86.3811 34.3861 90.0339 35.9901 95.0592 35.9901C97.8078 35.9901 100.29 35.2312 102.507 33.7122C102.613 34.513 102.689 34.9602 102.737 35.0551C102.808 35.198 102.994 35.3409 103.197 35.3409L107.232 35.3236C107.52 35.3236 107.754 35.0871 107.754 34.7976ZM133.123 22.8917C133.123 33.0506 129.831 35.9631 124.091 35.9631C120.831 35.9631 118.34 35.1475 116.619 33.5151C116.514 34.4108 116.426 34.9171 116.353 35.0354C116.242 35.214 116.093 35.315 115.896 35.315H111.514C111.225 35.315 110.993 35.0785 110.993 34.7878V1.8283C110.993 1.53755 111.225 1.30225 111.514 1.30225H117.83C118.117 1.30225 118.35 1.53755 118.35 1.8283V12.9889C119.96 11.9331 121.947 11.4046 124.314 11.4046C127.867 11.4046 133.124 12.7327 133.124 22.8917H133.123ZM125.859 23.2866C125.859 17.9181 123.691 17.2381 121.44 17.4389C120.253 17.5448 119.177 17.8947 118.21 18.4873V28.9247C119.19 29.5801 120.402 29.93 121.848 29.9744C124.881 30.0655 125.859 28.9482 125.859 23.2866ZM55.7008 17.695V12.6192C55.7008 12.3285 55.4679 12.0944 55.1796 12.0944H50.4549L50.4475 5.85191C50.4475 5.61537 50.3256 5.4971 50.0521 5.4971H43.6137C43.3636 5.4971 43.2293 5.60798 43.2293 5.84822V12.2989C41.0782 12.8176 39.93 13.0985 39.7847 13.1404C39.5678 13.2032 39.4077 13.404 39.4077 13.643V17.6963C39.4077 17.987 39.6405 18.2223 39.9288 18.2223H43.2305V27.9735C43.2305 35.2164 48.31 35.9273 51.7387 35.9273C53.3058 35.9273 55.1796 35.4246 55.4888 35.3101C55.6761 35.2411 55.7845 35.0476 55.7845 34.837L55.7895 30.3784C55.7895 30.0876 55.5443 29.8523 55.2671 29.8523C55.1618 29.8523 54.9944 29.8686 54.7872 29.8888C54.4512 29.9215 54.0109 29.9644 53.562 29.9644C51.2409 29.9644 50.4549 28.8852 50.4549 27.4881V18.2211H55.1796C55.4679 18.2211 55.7008 17.987 55.7008 17.695Z" fill="#909090"/>

    </symbol>
    <symbol id="rss-logo" viewBox="0 0 134 36">
        <path fill-rule="evenodd" clip-rule="evenodd" d="M66.532 14.8233L72.8842 14.4246C73.0227 15.4571 73.303 16.2432 73.725 16.7828C74.4144 17.6575 75.397 18.0948 76.6727 18.0948C77.6247 18.0948 78.3592 17.8717 78.8763 17.4255C79.1131 17.2403 79.3054 17.0044 79.4392 16.7351C79.573 16.4659 79.6448 16.1701 79.6495 15.8695C79.6455 15.5813 79.5786 15.2974 79.4534 15.0378C79.3282 14.7782 79.1477 14.5491 78.9246 14.3666C78.4414 13.9253 77.3018 13.5073 75.5057 13.1126C72.5773 12.4554 70.4889 11.5808 69.2406 10.4886C68.6331 9.97982 68.148 9.3407 67.8213 8.61874C67.4946 7.89679 67.3347 7.11052 67.3535 6.31832C67.3581 5.19879 67.6945 4.10576 68.32 3.17728C69.0344 2.13081 70.0436 1.32013 71.2194 0.84808C72.508 0.282693 74.2799 0 76.535 0C79.2959 0 81.4012 0.513841 82.8509 1.54152C84.3006 2.56921 85.1632 4.20255 85.4386 6.44154L79.1445 6.8088C78.9834 5.84233 78.6323 5.13519 78.091 4.68739C77.5498 4.23959 76.8088 4.0165 75.8681 4.01811C75.0926 4.01811 74.5078 4.18483 74.1164 4.51343C73.9315 4.6556 73.7821 4.83866 73.6798 5.04826C73.5775 5.25786 73.5252 5.4883 73.5269 5.72152C73.5327 5.9025 73.5792 6.07985 73.6628 6.24045C73.7465 6.40104 73.8652 6.54078 74.0101 6.64933C74.3242 6.93444 75.0708 7.20022 76.2499 7.44667C79.1686 8.07488 81.2627 8.71114 82.532 9.35546C83.8013 9.99977 84.7194 10.7979 85.2864 11.7499C85.8651 12.7156 86.1637 13.8232 86.149 14.9489C86.156 16.312 85.7564 17.6462 85.0013 18.781C84.2154 19.9642 83.0975 20.8889 81.7878 21.4388C80.4106 22.0428 78.6758 22.3449 76.5833 22.3449C72.9091 22.3449 70.3641 21.6377 68.9482 20.2234C67.5323 18.8092 66.7269 17.0091 66.532 14.8233ZM1.51495 21.9824V0.364844H12.6439C14.7073 0.364844 16.2843 0.541225 17.3748 0.893988C18.4489 1.23708 19.3776 1.92934 20.0132 2.86076C20.7051 3.89458 21.0573 5.1184 21.0208 6.36181C21.0488 7.44688 20.7816 8.51918 20.2476 9.46419C19.7352 10.3402 19.0096 11.0725 18.1383 11.5928C17.4057 11.9969 16.6152 12.2854 15.7946 12.4482C16.4086 12.629 16.9936 12.8967 17.5318 13.2431C17.9318 13.5756 18.2918 13.9534 18.6046 14.369C18.9565 14.7821 19.268 15.2279 19.5348 15.7004L22.7677 21.9824H15.222L11.6557 15.3693C11.203 14.514 10.8003 13.9583 10.4476 13.7022C9.96687 13.369 9.3942 13.1942 8.8094 13.202H8.21502V21.9824H1.51495ZM8.21502 9.11867H11.0371C11.6344 9.07408 12.2263 8.97542 12.8058 8.8239C13.2388 8.74082 13.6249 8.4986 13.8882 8.14495C14.1666 7.78772 14.3149 7.34624 14.3086 6.89337C14.3268 6.59271 14.2764 6.29186 14.1613 6.01352C14.0462 5.73518 13.8694 5.48662 13.6442 5.28661C13.2028 4.9129 12.3725 4.72605 11.1531 4.72605H8.21502V9.11867ZM0 40.4807L6.35215 40.0845C6.49067 41.117 6.77095 41.903 7.19298 42.4427C7.87434 43.3173 8.85934 43.7547 10.148 43.7547C11.0999 43.7547 11.8345 43.5308 12.3515 43.083C12.5883 42.8977 12.7807 42.6618 12.9144 42.3926C13.0482 42.1233 13.1201 41.8275 13.1247 41.5269C13.1205 41.2388 13.0534 40.955 12.9282 40.6955C12.803 40.4359 12.6227 40.2068 12.3999 40.0241C11.9166 39.5827 10.777 39.1655 8.98095 38.7725C6.05254 38.1121 3.96415 37.2374 2.71579 36.1485C2.10839 35.6391 1.6234 34.9995 1.29674 34.2772C0.970087 33.5549 0.81014 32.7683 0.828751 31.9758C0.834099 30.8563 1.17036 29.7635 1.79522 28.8347C2.50963 27.7883 3.51878 26.9776 4.69464 26.5055C5.98327 25.9401 7.75514 25.6574 10.0102 25.6574C12.7711 25.6574 14.8764 26.1713 16.3261 27.199C17.7759 28.2267 18.6384 29.86 18.9139 32.099L12.6318 32.4687C12.4707 31.5022 12.1196 30.7942 11.5783 30.3448C11.0371 29.8954 10.297 29.6748 9.35788 29.6828C8.58309 29.6828 7.99918 29.8439 7.60614 30.166C7.42126 30.3082 7.27182 30.4913 7.16953 30.7009C7.06725 30.9105 7.0149 31.1409 7.0166 31.3741C7.0221 31.5555 7.0684 31.7333 7.15206 31.8944C7.23572 32.0554 7.35459 32.1956 7.49983 32.3044C7.81394 32.5895 8.56054 32.8544 9.73963 33.0993C12.6584 33.7275 14.7524 34.3638 16.0217 35.0081C17.291 35.6524 18.2092 36.4505 18.7762 37.4025C19.3545 38.3684 19.6531 39.4759 19.6387 40.6015C19.646 41.9646 19.2464 43.2989 18.491 44.4336C17.7052 45.6168 16.5872 46.5415 15.2775 47.0914C13.9003 47.6954 12.1655 47.9975 10.0731 47.9975C6.39886 47.9975 3.85381 47.2903 2.43793 45.8761C1.02205 44.4618 0.209403 42.6633 0 40.4807ZM39.3838 38.787L45.2358 40.5556C44.9121 42.0402 44.279 43.4398 43.3777 44.6631C42.5565 45.744 41.4762 46.6007 40.2367 47.1542C38.9835 47.7132 37.3888 47.9926 35.4527 47.9926C33.1041 47.9926 31.1857 47.652 29.6973 46.9706C28.2089 46.2892 26.9203 45.0884 25.8314 43.3681C24.749 41.6493 24.2085 39.4498 24.2102 36.7695C24.2102 33.1967 25.1605 30.4495 27.0613 28.5279C28.962 26.6062 31.652 25.6462 35.1313 25.6478C37.8551 25.6478 39.9951 26.1987 41.5511 27.3004C43.1071 28.4022 44.2637 30.0936 45.0207 32.3744L39.1253 33.6864C38.9868 33.1722 38.7683 32.683 38.4777 32.2367C38.1206 31.7409 37.6512 31.3369 37.1077 31.0576C36.5445 30.777 35.9224 30.6353 35.2932 30.6444C33.7807 30.6444 32.6217 31.2533 31.8163 32.4711C31.2042 33.3747 30.899 34.793 30.9006 36.726C30.9006 39.1196 31.2646 40.761 31.9927 41.6502C32.7208 42.5393 33.7428 42.9831 35.0588 42.9815C36.3346 42.9815 37.301 42.6231 37.9582 41.9063C38.6154 41.1895 39.0906 40.1497 39.3838 38.787ZM50.3798 26.0223H57.0557V33.5801H64.3526V26.0223H71.0575V47.6302H64.3526V38.8957H57.0557V47.6375H50.3798V26.0223ZM75.2134 36.8395C75.2134 33.3151 76.1959 30.5687 78.1611 28.6004C80.1263 26.632 82.8646 25.6494 86.3761 25.6526C89.9714 25.6526 92.742 26.6191 94.6878 28.552C95.2945 29.1547 95.8068 29.8323 96.2248 30.5848C96.6378 29.8532 97.1395 29.1917 97.7297 28.6005C99.6949 26.6321 102.433 25.6495 105.945 25.6527C109.543 25.6527 112.315 26.6192 114.259 28.5522C115.253 29.541 115.994 30.7317 116.479 32.1243V26.0223H123.158V42.3098H133.579V47.6254H116.479V41.5231C116.316 42.0064 116.123 42.4588 115.902 42.8801C115.073 44.474 113.791 45.7865 112.217 46.6518C110.606 47.5506 108.604 48 106.211 48C103.773 48 101.76 47.6118 100.17 46.8354C98.5348 46.0245 97.1812 44.7407 96.2849 43.1507C96.2685 43.1233 96.2523 43.0958 96.2362 43.0682C95.407 44.5766 94.1648 45.8193 92.6534 46.6492C91.0426 47.5481 89.0404 47.9975 86.6467 47.9975C84.2112 47.9975 82.1977 47.6093 80.6063 46.8329C78.9712 46.0226 77.6182 44.7386 76.7235 43.1482C75.7151 41.4697 75.2118 39.3669 75.2134 36.8395ZM81.8893 36.8709C81.8893 39.0536 82.292 40.6209 83.0974 41.5728C83.9028 42.5248 85.0061 43.0008 86.4075 43.0008C87.8428 43.0008 88.9534 42.5345 89.7395 41.6018C90.5255 40.6692 90.9186 38.994 90.9186 36.5762C90.9186 34.5417 90.5078 33.055 89.6863 32.1159C88.8648 31.1768 87.7517 30.7081 86.3471 30.7097C85.7364 30.6877 85.1286 30.8041 84.5692 31.0501C84.0098 31.2961 83.5133 31.6654 83.1167 32.1304C82.3 33.0969 81.8909 34.6771 81.8893 36.8709ZM101.46 36.8711C101.46 39.0537 101.863 40.621 102.668 41.573C103.474 42.5249 104.579 43.0017 105.983 43.0033C107.419 43.0033 108.529 42.537 109.315 41.6044C110.101 40.6717 110.494 38.9965 110.494 36.5787C110.494 34.5443 110.084 33.0575 109.265 32.1184C108.445 31.1794 107.332 30.7106 105.925 30.7122C105.314 30.6887 104.705 30.8041 104.144 31.0497C103.583 31.2954 103.085 31.6649 102.688 32.1305C101.868 33.097 101.459 34.6772 101.46 36.8711Z" fill="#505050"/>

    </symbol>
</svg>
